<svg xmlns="http://www.w3.org/2000/svg" viewBox="0 0 200 200" width="200" height="200">
  <!-- Black background circle -->
  <circle cx="100" cy="100" r="100" fill="#1A1A1A"/>
  
  <!-- Outer white glow/stroke for the star -->
  <path d="M100 20 L115 65 L165 65 L125 95 L140 140 L100 110 L60 140 L75 95 L35 65 L85 65 Z" 
        fill="none" 
        stroke="#FFFFFF" 
        stroke-width="4" 
        stroke-linejoin="round" 
        stroke-linecap="round"/>
  
  <!-- Main orange star -->
  <path d="M100 20 L115 65 L165 65 L125 95 L140 140 L100 110 L60 140 L75 95 L35 65 L85 65 Z" 
        fill="#FF8C42"/>
  
  <!-- Inner highlight for depth -->
  <path d="M100 30 L112 60 L145 60 L120 80 L132 110 L100 90 L68 110 L80 80 L55 60 L88 60 Z" 
        fill="#FFB366" 
        opacity="0.7"/>
  
  <!-- Central highlight -->
  <circle cx="100" cy="85" r="8" fill="#FFFFFF" opacity="0.3"/>
  
  <!-- Sparkle effects around the star -->
  <circle cx="150" cy="50" r="2" fill="#FFFFFF" opacity="0.8"/>
  <circle cx="170" cy="80" r="1.5" fill="#FFFFFF" opacity="0.6"/>
  <circle cx="160" cy="120" r="1" fill="#FFFFFF" opacity="0.7"/>
  <circle cx="130" cy="150" r="1.5" fill="#FFFFFF" opacity="0.5"/>
  <circle cx="70" cy="150" r="1" fill="#FFFFFF" opacity="0.6"/>
  <circle cx="40" cy="120" r="1.5" fill="#FFFFFF" opacity="0.7"/>
  <circle cx="30" cy="80" r="2" fill="#FFFFFF" opacity="0.5"/>
  <circle cx="50" cy="50" r="1" fill="#FFFFFF" opacity="0.8"/>
  
  <!-- Additional small sparkles -->
  <path d="M175 45 L177 47 L175 49 L173 47 Z" fill="#FFFFFF" opacity="0.6"/>
  <path d="M45 45 L47 47 L45 49 L43 47 Z" fill="#FFFFFF" opacity="0.5"/>
  <path d="M155 135 L157 137 L155 139 L153 137 Z" fill="#FFFFFF" opacity="0.4"/>
  <path d="M65 135 L67 137 L65 139 L63 137 Z" fill="#FFFFFF" opacity="0.6"/>
</svg>
